<mxfile host="app.diagrams.net" agent="Mozilla/5.0 (Windows NT 10.0; Win64; x64) AppleWebKit/537.36 (KHTML, like Gecko) Chrome/137.0.0.0 Safari/537.36" version="27.1.1">
  <diagram name="Halaman-1" id="XpnPsfFeZsTlUXcj-2GV">
    <mxGraphModel dx="820" dy="398" grid="1" gridSize="10" guides="1" tooltips="1" connect="1" arrows="1" fold="1" page="1" pageScale="1" pageWidth="827" pageHeight="1169" math="0" shadow="0">
      <root>
        <mxCell id="0" />
        <mxCell id="1" parent="0" />
        <mxCell id="jcBwvK4do59R9GfYr-RI-31" value="Pegawai" style="rounded=0;whiteSpace=wrap;html=1;" vertex="1" parent="1">
          <mxGeometry x="80" y="440" width="80" height="40" as="geometry" />
        </mxCell>
        <mxCell id="jcBwvK4do59R9GfYr-RI-32" value="SI&lt;div&gt;Ubah&lt;br&gt;&lt;div&gt;Harga Layanan&lt;/div&gt;&lt;/div&gt;" style="ellipse;whiteSpace=wrap;html=1;" vertex="1" parent="1">
          <mxGeometry x="264" y="420" width="80" height="80" as="geometry" />
        </mxCell>
        <mxCell id="jcBwvK4do59R9GfYr-RI-33" value="SI&lt;div&gt;Tambah&lt;br&gt;&lt;div&gt;Harga Layanan&lt;/div&gt;&lt;/div&gt;" style="ellipse;whiteSpace=wrap;html=1;" vertex="1" parent="1">
          <mxGeometry x="264" y="300" width="80" height="80" as="geometry" />
        </mxCell>
        <mxCell id="jcBwvK4do59R9GfYr-RI-34" value="SI&lt;div&gt;Cari&lt;br&gt;&lt;div&gt;Harga Layanan&lt;/div&gt;&lt;/div&gt;" style="ellipse;whiteSpace=wrap;html=1;" vertex="1" parent="1">
          <mxGeometry x="264" y="540" width="80" height="80" as="geometry" />
        </mxCell>
        <mxCell id="jcBwvK4do59R9GfYr-RI-35" value="" style="endArrow=classic;html=1;rounded=0;exitX=0.618;exitY=0.013;exitDx=0;exitDy=0;exitPerimeter=0;entryX=0.017;entryY=0.625;entryDx=0;entryDy=0;entryPerimeter=0;" edge="1" parent="1" source="jcBwvK4do59R9GfYr-RI-31" target="jcBwvK4do59R9GfYr-RI-33">
          <mxGeometry width="50" height="50" relative="1" as="geometry">
            <mxPoint x="180" y="430" as="sourcePoint" />
            <mxPoint x="230" y="380" as="targetPoint" />
            <Array as="points">
              <mxPoint x="130" y="350" />
            </Array>
          </mxGeometry>
        </mxCell>
        <mxCell id="jcBwvK4do59R9GfYr-RI-36" value="" style="endArrow=classic;html=1;rounded=0;entryX=0.363;entryY=-0.01;entryDx=0;entryDy=0;entryPerimeter=0;exitX=0.014;exitY=0.379;exitDx=0;exitDy=0;exitPerimeter=0;" edge="1" parent="1" source="jcBwvK4do59R9GfYr-RI-33" target="jcBwvK4do59R9GfYr-RI-31">
          <mxGeometry width="50" height="50" relative="1" as="geometry">
            <mxPoint x="200" y="420" as="sourcePoint" />
            <mxPoint x="250" y="370" as="targetPoint" />
            <Array as="points">
              <mxPoint x="110" y="330" />
            </Array>
          </mxGeometry>
        </mxCell>
        <mxCell id="jcBwvK4do59R9GfYr-RI-37" value="D harga lay input" style="text;html=1;align=center;verticalAlign=middle;resizable=0;points=[];autosize=1;strokeColor=none;fillColor=none;" vertex="1" parent="1">
          <mxGeometry x="139" y="329" width="110" height="30" as="geometry" />
        </mxCell>
        <mxCell id="jcBwvK4do59R9GfYr-RI-38" value="info data harga lay" style="text;html=1;align=center;verticalAlign=middle;resizable=0;points=[];autosize=1;strokeColor=none;fillColor=none;" vertex="1" parent="1">
          <mxGeometry x="135" y="309" width="120" height="30" as="geometry" />
        </mxCell>
        <mxCell id="jcBwvK4do59R9GfYr-RI-39" value="Layanan" style="rounded=0;whiteSpace=wrap;html=1;" vertex="1" parent="1">
          <mxGeometry x="490" y="440" width="70" height="40" as="geometry" />
        </mxCell>
        <mxCell id="jcBwvK4do59R9GfYr-RI-40" value="D3" style="rounded=0;whiteSpace=wrap;html=1;" vertex="1" parent="1">
          <mxGeometry x="440" y="440" width="50" height="40" as="geometry" />
        </mxCell>
        <mxCell id="jcBwvK4do59R9GfYr-RI-41" value="" style="endArrow=classic;html=1;rounded=0;exitX=0.994;exitY=0.615;exitDx=0;exitDy=0;exitPerimeter=0;entryX=0.295;entryY=0.004;entryDx=0;entryDy=0;entryPerimeter=0;" edge="1" parent="1" source="jcBwvK4do59R9GfYr-RI-33" target="jcBwvK4do59R9GfYr-RI-39">
          <mxGeometry width="50" height="50" relative="1" as="geometry">
            <mxPoint x="360" y="349" as="sourcePoint" />
            <mxPoint x="480" y="430" as="targetPoint" />
            <Array as="points">
              <mxPoint x="510" y="350" />
            </Array>
          </mxGeometry>
        </mxCell>
        <mxCell id="jcBwvK4do59R9GfYr-RI-42" value="" style="endArrow=classic;html=1;rounded=0;entryX=0.988;entryY=0.374;entryDx=0;entryDy=0;entryPerimeter=0;exitX=0.577;exitY=0.001;exitDx=0;exitDy=0;exitPerimeter=0;" edge="1" parent="1" source="jcBwvK4do59R9GfYr-RI-39" target="jcBwvK4do59R9GfYr-RI-33">
          <mxGeometry width="50" height="50" relative="1" as="geometry">
            <mxPoint x="520" y="430" as="sourcePoint" />
            <mxPoint x="420" y="350" as="targetPoint" />
            <Array as="points">
              <mxPoint x="530" y="330" />
            </Array>
          </mxGeometry>
        </mxCell>
        <mxCell id="jcBwvK4do59R9GfYr-RI-43" value="D pegawai input" style="text;html=1;align=center;verticalAlign=middle;resizable=0;points=[];autosize=1;strokeColor=none;fillColor=none;" vertex="1" parent="1">
          <mxGeometry x="377" y="329" width="110" height="30" as="geometry" />
        </mxCell>
        <mxCell id="jcBwvK4do59R9GfYr-RI-44" value="info data harga lay" style="text;html=1;align=center;verticalAlign=middle;resizable=0;points=[];autosize=1;strokeColor=none;fillColor=none;" vertex="1" parent="1">
          <mxGeometry x="372" y="309" width="120" height="30" as="geometry" />
        </mxCell>
        <mxCell id="jcBwvK4do59R9GfYr-RI-45" value="" style="endArrow=classic;html=1;rounded=0;exitX=1;exitY=0.25;exitDx=0;exitDy=0;entryX=0.014;entryY=0.375;entryDx=0;entryDy=0;entryPerimeter=0;" edge="1" parent="1" source="jcBwvK4do59R9GfYr-RI-31" target="jcBwvK4do59R9GfYr-RI-32">
          <mxGeometry width="50" height="50" relative="1" as="geometry">
            <mxPoint x="220" y="500" as="sourcePoint" />
            <mxPoint x="250" y="450" as="targetPoint" />
          </mxGeometry>
        </mxCell>
        <mxCell id="jcBwvK4do59R9GfYr-RI-46" value="" style="endArrow=classic;html=1;rounded=0;exitX=1;exitY=0.25;exitDx=0;exitDy=0;entryX=0;entryY=0.25;entryDx=0;entryDy=0;" edge="1" parent="1" target="jcBwvK4do59R9GfYr-RI-40">
          <mxGeometry width="50" height="50" relative="1" as="geometry">
            <mxPoint x="344" y="450" as="sourcePoint" />
            <mxPoint x="449" y="450" as="targetPoint" />
          </mxGeometry>
        </mxCell>
        <mxCell id="jcBwvK4do59R9GfYr-RI-47" value="" style="endArrow=classic;html=1;rounded=0;exitX=0.012;exitY=0.617;exitDx=0;exitDy=0;entryX=1;entryY=0.75;entryDx=0;entryDy=0;exitPerimeter=0;" edge="1" parent="1" source="jcBwvK4do59R9GfYr-RI-32" target="jcBwvK4do59R9GfYr-RI-31">
          <mxGeometry width="50" height="50" relative="1" as="geometry">
            <mxPoint x="354" y="460" as="sourcePoint" />
            <mxPoint x="450" y="460" as="targetPoint" />
          </mxGeometry>
        </mxCell>
        <mxCell id="jcBwvK4do59R9GfYr-RI-48" value="" style="endArrow=classic;html=1;rounded=0;exitX=0.012;exitY=0.617;exitDx=0;exitDy=0;exitPerimeter=0;entryX=0.988;entryY=0.627;entryDx=0;entryDy=0;entryPerimeter=0;" edge="1" parent="1" target="jcBwvK4do59R9GfYr-RI-32">
          <mxGeometry width="50" height="50" relative="1" as="geometry">
            <mxPoint x="440" y="470" as="sourcePoint" />
            <mxPoint x="350" y="490" as="targetPoint" />
          </mxGeometry>
        </mxCell>
        <mxCell id="jcBwvK4do59R9GfYr-RI-49" value="" style="endArrow=classic;html=1;rounded=0;exitX=0.361;exitY=1.01;exitDx=0;exitDy=0;exitPerimeter=0;entryX=0.023;entryY=0.632;entryDx=0;entryDy=0;entryPerimeter=0;" edge="1" parent="1" source="jcBwvK4do59R9GfYr-RI-31" target="jcBwvK4do59R9GfYr-RI-34">
          <mxGeometry width="50" height="50" relative="1" as="geometry">
            <mxPoint x="120" y="540" as="sourcePoint" />
            <mxPoint x="170" y="490" as="targetPoint" />
            <Array as="points">
              <mxPoint x="110" y="590" />
            </Array>
          </mxGeometry>
        </mxCell>
        <mxCell id="jcBwvK4do59R9GfYr-RI-50" value="" style="endArrow=classic;html=1;rounded=0;entryX=0.611;entryY=1.018;entryDx=0;entryDy=0;entryPerimeter=0;exitX=0.014;exitY=0.369;exitDx=0;exitDy=0;exitPerimeter=0;" edge="1" parent="1" source="jcBwvK4do59R9GfYr-RI-34" target="jcBwvK4do59R9GfYr-RI-31">
          <mxGeometry width="50" height="50" relative="1" as="geometry">
            <mxPoint x="240" y="550" as="sourcePoint" />
            <mxPoint x="290" y="500" as="targetPoint" />
            <Array as="points">
              <mxPoint x="130" y="570" />
            </Array>
          </mxGeometry>
        </mxCell>
        <mxCell id="jcBwvK4do59R9GfYr-RI-51" value="" style="endArrow=classic;html=1;rounded=0;exitX=0.993;exitY=0.615;exitDx=0;exitDy=0;exitPerimeter=0;entryX=0.566;entryY=0.991;entryDx=0;entryDy=0;entryPerimeter=0;" edge="1" parent="1" source="jcBwvK4do59R9GfYr-RI-34" target="jcBwvK4do59R9GfYr-RI-39">
          <mxGeometry width="50" height="50" relative="1" as="geometry">
            <mxPoint x="450" y="580" as="sourcePoint" />
            <mxPoint x="540" y="490" as="targetPoint" />
            <Array as="points">
              <mxPoint x="530" y="590" />
            </Array>
          </mxGeometry>
        </mxCell>
        <mxCell id="jcBwvK4do59R9GfYr-RI-52" value="" style="endArrow=classic;html=1;rounded=0;entryX=0.985;entryY=0.374;entryDx=0;entryDy=0;entryPerimeter=0;exitX=0.284;exitY=1.001;exitDx=0;exitDy=0;exitPerimeter=0;" edge="1" parent="1" source="jcBwvK4do59R9GfYr-RI-39" target="jcBwvK4do59R9GfYr-RI-34">
          <mxGeometry width="50" height="50" relative="1" as="geometry">
            <mxPoint x="500" y="500" as="sourcePoint" />
            <mxPoint x="430" y="500" as="targetPoint" />
            <Array as="points">
              <mxPoint x="510" y="570" />
            </Array>
          </mxGeometry>
        </mxCell>
        <mxCell id="jcBwvK4do59R9GfYr-RI-53" value="D harga lay ubah" style="text;html=1;align=center;verticalAlign=middle;resizable=0;points=[];autosize=1;strokeColor=none;fillColor=none;" vertex="1" parent="1">
          <mxGeometry x="154" y="430" width="110" height="30" as="geometry" />
        </mxCell>
        <mxCell id="jcBwvK4do59R9GfYr-RI-54" value="info harga lay" style="text;html=1;align=center;verticalAlign=middle;resizable=0;points=[];autosize=1;strokeColor=none;fillColor=none;" vertex="1" parent="1">
          <mxGeometry x="165" y="449" width="100" height="30" as="geometry" />
        </mxCell>
        <mxCell id="jcBwvK4do59R9GfYr-RI-55" value="D harga lay ubah" style="text;html=1;align=center;verticalAlign=middle;resizable=0;points=[];autosize=1;strokeColor=none;fillColor=none;" vertex="1" parent="1">
          <mxGeometry x="332" y="430" width="110" height="30" as="geometry" />
        </mxCell>
        <mxCell id="jcBwvK4do59R9GfYr-RI-56" value="info harga lay" style="text;html=1;align=center;verticalAlign=middle;resizable=0;points=[];autosize=1;strokeColor=none;fillColor=none;" vertex="1" parent="1">
          <mxGeometry x="341" y="449" width="100" height="30" as="geometry" />
        </mxCell>
        <mxCell id="jcBwvK4do59R9GfYr-RI-57" value="info harga lay" style="text;html=1;align=center;verticalAlign=middle;resizable=0;points=[];autosize=1;strokeColor=none;fillColor=none;" vertex="1" parent="1">
          <mxGeometry x="145" y="548" width="100" height="30" as="geometry" />
        </mxCell>
        <mxCell id="jcBwvK4do59R9GfYr-RI-58" value="kd, nm harga lay" style="text;html=1;align=center;verticalAlign=middle;resizable=0;points=[];autosize=1;strokeColor=none;fillColor=none;" vertex="1" parent="1">
          <mxGeometry x="139" y="569" width="110" height="30" as="geometry" />
        </mxCell>
        <mxCell id="jcBwvK4do59R9GfYr-RI-59" value="info harga lay" style="text;html=1;align=center;verticalAlign=middle;resizable=0;points=[];autosize=1;strokeColor=none;fillColor=none;" vertex="1" parent="1">
          <mxGeometry x="378" y="548" width="100" height="30" as="geometry" />
        </mxCell>
        <mxCell id="jcBwvK4do59R9GfYr-RI-60" value="kd, nm harga lay" style="text;html=1;align=center;verticalAlign=middle;resizable=0;points=[];autosize=1;strokeColor=none;fillColor=none;" vertex="1" parent="1">
          <mxGeometry x="372" y="569" width="110" height="30" as="geometry" />
        </mxCell>
      </root>
    </mxGraphModel>
  </diagram>
</mxfile>
